<svg width="136" height="136" viewBox="0 0 136 136" fill="none" xmlns="http://www.w3.org/2000/svg">
<circle cx="68" cy="68" r="64" fill="black" stroke="white" stroke-width="8"/>
<path d="M91.0535 55.9795C86.4296 47.8068 77.7838 41.7988 68.1025 39.347C61.2148 37.6021 53.8696 37.6021 46.9096 39.0599C41.6836 40.1643 34.5792 41.9535 33.2787 47.4976C32.6044 50.3028 33.2787 53.2405 33.9771 56.0458C36.8671 68.0176 39.7811 79.9894 42.671 91.9833C43.3213 94.6339 43.9715 97.3066 45.3442 99.6921C46.7169 102.078 48.9085 104.22 51.7503 104.993C55.7962 106.12 60.0588 104.309 63.8399 102.564C69.1622 100.112 74.4845 97.6379 79.3251 94.4572C84.1658 91.2765 88.5248 87.3448 91.3184 82.5075C96.0146 74.379 95.7015 64.1301 91.1017 55.9795H91.0535ZM75.9054 68.6581C75.1347 70.2485 73.8824 71.5959 72.4856 72.7665C71.6427 73.4955 70.7035 74.1581 69.6197 74.5336C68.536 74.9091 67.2596 74.9533 66.2481 74.4011C65.1162 73.8047 64.5142 72.6119 64.0084 71.5075C62.997 69.3208 58.4694 62.8931 59.9625 60.5959C61.7687 57.7686 69.0177 58.8289 71.5705 59.8228C73.5212 60.5738 75.3274 61.8108 76.1462 63.5999C76.8687 65.2124 76.676 67.0678 75.9054 68.6581Z" fill="#E43662"/>
<path d="M97.0484 42.0017C96.1092 41.3391 94.8569 41.1403 93.6768 41.1845C92.5931 41.2286 91.4853 41.5158 90.6664 42.1563C89.2215 43.2607 88.9566 45.2708 89.5345 46.9274C90.1125 48.584 91.3648 49.9314 92.6412 51.1904C93.9176 52.4495 95.1458 53.6422 95.9406 55.1442C95.9887 55.2326 96.1092 55.2768 96.2055 55.2326L102.828 52.3169C104.996 51.3671 107.332 50.2627 108.391 48.2748C109.234 46.6402 109.018 44.586 107.813 43.1724C106.609 41.7587 104.514 41.0077 102.587 41.3391C101.648 41.4937 100.781 41.9134 100.059 42.4656C99.6975 42.7527 99.3844 43.084 99.1195 43.4374C98.9269 43.7025 98.7342 44.0559 98.6379 44.6081C98.5656 43.6362 97.9635 42.6202 97.0725 42.0238L97.0484 42.0017Z" fill="#E43662"/>
</svg>
