<svg width="128" height="128" viewBox="0 0 128 128" fill="none" xmlns="http://www.w3.org/2000/svg">
<rect width="128" height="128" rx="64" fill="#4192F3"/>
<path opacity="0.8" fill-rule="evenodd" clip-rule="evenodd" d="M38.745 70.767C40.1527 72.2663 40.0719 74.6157 38.5645 76.0147L38.4873 76.0863C36.9799 77.4853 34.6167 77.404 33.2091 75.9047C31.8014 74.4054 31.8823 72.056 33.3897 70.657L33.4669 70.5854C34.9743 69.1864 37.3374 69.2677 38.745 70.767Z" fill="white"/>
<path opacity="0.9" fill-rule="evenodd" clip-rule="evenodd" d="M56.2532 72.4879C57.6581 73.9897 57.573 76.339 56.0631 77.7353L45.3724 87.6211C43.8625 89.0174 41.4995 88.9318 40.0946 87.4301C38.6896 85.9283 38.7747 83.5789 40.2847 82.1827L50.9753 72.2968C52.4852 70.9006 54.8482 70.9861 56.2532 72.4879Z" fill="white"/>
<path opacity="0.8" fill-rule="evenodd" clip-rule="evenodd" d="M69.6779 90.6012C70.88 88.9354 73.213 88.5543 74.889 89.7501L75.1078 89.9063C76.7838 91.102 77.168 93.4218 75.9659 95.0877C74.7639 96.7535 72.4308 97.1345 70.7548 95.9388L70.536 95.7826C68.8601 94.5869 68.4759 92.2671 69.6779 90.6012Z" fill="white"/>
<path opacity="0.9" fill-rule="evenodd" clip-rule="evenodd" d="M94.9602 72.4782C96.3679 73.9775 96.2871 76.3269 94.7797 77.7259L89.5302 82.5978C88.0228 83.9968 85.6597 83.9155 84.252 82.4163C82.8443 80.917 82.9252 78.5675 84.4326 77.1685L89.682 72.2966C91.1894 70.8977 93.5525 70.9789 94.9602 72.4782Z" fill="white"/>
<path fill-rule="evenodd" clip-rule="evenodd" d="M95.6768 53.8159C97.0845 55.3152 97.0037 57.6646 95.4963 59.0636L56.7043 95.0657C55.1969 96.4647 52.8338 96.3834 51.4261 94.8841C50.0185 93.3848 50.0993 91.0354 51.6067 89.6364L90.3987 53.6343C91.906 52.2354 94.2692 52.3167 95.6768 53.8159Z" fill="white"/>
<path fill-rule="evenodd" clip-rule="evenodd" d="M88.8526 42.173C90.2603 43.6723 90.1794 46.0218 88.6721 47.4208L66.3618 68.1264C64.8545 69.5254 62.4913 69.4441 61.0837 67.9448C59.676 66.4456 59.7568 64.0961 61.2642 62.6971L83.5744 41.9915C85.0818 40.5925 87.4449 40.6738 88.8526 42.173Z" fill="white"/>
<path fill-rule="evenodd" clip-rule="evenodd" d="M77.8451 34.4395C79.2538 35.9378 79.1746 38.2873 77.6681 39.6873L48.9878 66.3409C47.4814 67.7408 45.1182 67.6611 43.7095 66.1628C42.3008 64.6645 42.3801 62.315 43.8865 60.915L72.5668 34.2614C74.0733 32.8614 76.4364 32.9412 77.8451 34.4395Z" fill="white"/>
<path opacity="0.9" fill-rule="evenodd" clip-rule="evenodd" d="M50.0782 42.3319C51.4833 43.8336 51.3984 46.1829 49.8886 47.5793L38.6575 57.9667C37.1477 59.3631 34.7847 59.2777 33.3797 57.7761C31.9746 56.2744 32.0595 53.9251 33.5693 52.5287L44.8003 42.1413C46.3101 40.7449 48.6731 40.8303 50.0782 42.3319Z" fill="white"/>
<path opacity="0.8" fill-rule="evenodd" clip-rule="evenodd" d="M57.0974 31.8218C59.1586 31.8927 60.7724 33.6115 60.7019 35.6608L60.6892 36.0319C60.6187 38.0813 58.8905 39.6851 56.8293 39.6142C54.768 39.5433 53.1542 37.8245 53.2247 35.7751L53.2375 35.4041C53.308 33.3547 55.0361 31.7508 57.0974 31.8218Z" fill="white"/>
</svg>
